<svg viewBox="0 -0.5 8 8" width="800" shape-rendering="crispEdges" xmlns="http://www.w3.org/2000/svg">
  <clipPath id="sqr"><rect y="-0.5" width="8" height="8" rx="1" fill="#0000" /></clipPath>
  <g clip-path="url(#sqr)"><path stroke="#2f200d" d="M0,0h1 z" /><path stroke="#2b1e0d" d="M1,0h1 M0,1h3 M0,2h1 z" /><path stroke="#2f1f0f" d="M2,0h1 z" /><path stroke="#281c0b" d="M3,0h1 z" /><path stroke="#6cc349" d="M4,0h1 M6,0h1 M5,1h1 M7,1h1 M4,2h1 z" /><path stroke="#52a535" d="M5,0h1 M7,0h1 M4,1h1 M7,2h1 z" /><path stroke="#332411" d="M3,1h1 z" /><path stroke="#66412c" d="M6,1h1 M5,2h1 M4,3h1 M7,3h1 M6,4h2 M6,7h1 z" /><path stroke="#b6896c" d="M1,2h1 z" /><path stroke="#bd8e72" d="M2,2h1 z" /><path stroke="#c69680" d="M3,2h1 z" /><path stroke="#805539" d="M6,2h1 M5,3h1 M4,4h1 M5,5h1 M7,5h1 M6,6h1 M4,7h1 z" /><path stroke="#aa7d66" d="M0,3h1 M2,3h1 z" /><path stroke="#b4846d" d="M1,3h1 M0,4h1 z" /><path stroke="#ad806d" d="M3,3h1 z" /><path stroke="#976746" d="M6,3h1 M6,5h1 M4,6h1 M7,6h1 M5,7h1 z" /><path stroke="#fff" d="M1,4h1 z" /><path stroke="#523d89" d="M2,4h1 z" /><path stroke="#b57b67" d="M3,4h1 z" /><path stroke="#ad7a54" d="M5,4h1 M5,6h1 M7,7h1 z" /><path stroke="#9c6346" d="M0,5h1 z" /><path stroke="#b37b62" d="M1,5h1 z" /><path stroke="#b78272" d="M2,5h1 z" /><path stroke="#6a4030" d="M3,5h1 z" /><path stroke="#998f8b" d="M4,5h1 z" /><path stroke="#905e43" d="M0,6h1 z" /><path stroke="#965f40" d="M1,6h1 z" /><path stroke="#774235" d="M2,6h2 z" /><path stroke="#6f452c" d="M0,7h1 z" /><path stroke="#6d432a" d="M1,7h1 z" /><path stroke="#815339" d="M2,7h2 z" /></g>
</svg>